<?xml version="1.0" encoding="utf-8"?>
<!-- Generator: Adobe Illustrator 25.4.1, SVG Export Plug-In . SVG Version: 6.00 Build 0)  -->
<svg version="1.1" id="Capa_1" xmlns="http://www.w3.org/2000/svg" xmlns:xlink="http://www.w3.org/1999/xlink" x="0px" y="0px"
	 viewBox="0 0 24 24" style="enable-background:new 0 0 24 24;" xml:space="preserve">
<style type="text/css">
	.st0{fill:#8E218E;}
	.st1{fill:#FFFFFF;}
	.st2{fill:none;}
</style>
<circle class="st0" cx="12" cy="11.9" r="11.9"/>
<g>
	<g>
		<path class="st1" d="M12.1,4.3c-1.3,0-3.1,0.4-3.8,0.7C7.5,5.2,7,5.6,6.9,6.3l-0.6,4.3v5.9h1v0.9c0,1.1,1.6,1.1,1.6,0v-0.9h3h0
			h3.2v0.9c0,1.1,1.6,1.1,1.6,0v-0.9h1v-5.9l-0.6-4.3c-0.2-0.8-0.6-1.1-1.4-1.4c-0.7-0.3-2.5-0.7-3.8-0.7"/>
	</g>
	<g>
		<circle class="st0" cx="15.6" cy="13.8" r="1.1"/>
		<circle class="st0" cx="8.3" cy="13.8" r="1"/>
		<path class="st0" d="M11.9,6.7H8.4C7.9,6.7,7.8,7,7.7,7.3l-0.4,3.1c0,0.3,0,0.6,0.5,0.6h4.2h4.3c0.4,0,0.5-0.3,0.5-0.6l-0.4-3.1
			c-0.1-0.4-0.2-0.6-0.7-0.6C15.6,6.7,11.9,6.7,11.9,6.7z"/>
	</g>
	<rect x="6.1" y="4.1" class="st2" width="11.8" height="14.2"/>
</g>
</svg>
