<?xml version="1.0" encoding="utf-8"?>
<!-- Generator: Adobe Illustrator 25.4.1, SVG Export Plug-In . SVG Version: 6.00 Build 0)  -->
<svg version="1.1" id="Capa_1" xmlns="http://www.w3.org/2000/svg" xmlns:xlink="http://www.w3.org/1999/xlink" x="0px" y="0px"
	 viewBox="0 0 24 24" style="enable-background:new 0 0 24 24;" xml:space="preserve">
<style type="text/css">
	.st0{fill:#8C2222;}
	.st1{fill:#FFFFFF;}
</style>
<circle class="st0" cx="12" cy="12" r="11.9"/>
<path class="st1" d="M13.4,19.1V15l-1.4-1.4l-0.7,3l-4.7-1l0.3-1.4l3.3,0.7l1.1-5.5L9.9,9.9v2.3H8.6V9l2.7-1.2
	c0.4-0.2,0.7-0.3,0.9-0.3s0.4-0.1,0.5-0.1c0.2,0,0.5,0.1,0.7,0.2s0.4,0.3,0.5,0.5l0.7,1.1c0.3,0.5,0.7,0.9,1.2,1.2
	c0.5,0.3,1.1,0.5,1.7,0.5v1.4c-0.8,0-1.5-0.2-2.1-0.5c-0.7-0.3-1.2-0.7-1.6-1.2l-0.4,2.1l1.4,1.4v5.1H13.4z M13.7,7.1
	c-0.4,0-0.7-0.1-1-0.4c-0.3-0.3-0.4-0.6-0.4-1c0-0.4,0.1-0.7,0.4-1c0.3-0.3,0.6-0.4,1-0.4s0.7,0.1,1,0.4s0.4,0.6,0.4,1
	c0,0.4-0.1,0.7-0.4,1C14.4,7,14.1,7.1,13.7,7.1z"/>
</svg>
