<svg width="853" height="852" xmlns="http://www.w3.org/2000/svg">
 <style type="text/css">.st0{fill:#E90012;}</style>

 <g>
  <title>background</title>
  <rect fill="none" id="canvas_background" height="402" width="582" y="-1" x="-1"/>
 </g>
 <g>
  <title>Layer 1</title>
  <rect id="svg_2" height="489" width="367" y="188" x="226" stroke-width="1.5" stroke="#ffffff" fill="#fff"/>
  <g id="layer3">
   <path id="svg_1" d="m414.5,851.3c-155.5,-4.6 -295,-92.2 -366.2,-229.8c-23.8,-46.2 -38.3,-93.8 -45,-147.5c-2.5,-20.8 -2.5,-75.4 0,-96c6.4,-51.4 20.1,-97.8 41.4,-140.5c10.1,-20 14.7,-28.1 26.8,-46.5c17.7,-26.8 34.4,-46.9 59.1,-71c89.5,-87.2 213.9,-130.3 339.2,-117.4c117.8,12.1 225.2,72.6 296.2,166.9c71.5,95 99.6,212.1 79.5,330.9c-2.4,14 -10,43.9 -15.1,59.2c-22,66.8 -62.3,129.8 -112.9,176.7c-66.7,61.9 -148,100.3 -236.5,111.6c-19.2,2.5 -48.3,4 -66.5,3.4zm94.5,-416.8l0,-222.5l-52.2,0l-52.3,0l-75.2,48.8c-41.4,26.8 -75.2,49.2 -75.3,49.9c0,2.1 52.3,80.4 53.5,79.9c0.6,-0.2 19.2,-13.3 41.3,-29c22.1,-15.7 40.4,-28.6 40.7,-28.6c0.3,0 0.5,72.9 0.5,162l0,162l59.5,0l59.5,0l0,-222.5z" class="st0"/>
  </g>
 </g>
</svg>