<?xml version="1.0" encoding="utf-8"?>
<!-- Generator: Adobe Illustrator 24.0.2, SVG Export Plug-In . SVG Version: 6.00 Build 0)  -->
<svg version="1.1" id="Capa_1" xmlns="http://www.w3.org/2000/svg" xmlns:xlink="http://www.w3.org/1999/xlink" x="0px" y="0px"
	 viewBox="0 0 500 500" style="enable-background:new 0 0 500 500;" xml:space="preserve">
<style type="text/css">
	.st0{fill:#FFFF00;}
</style>
<path d="M476,488H28c-6.6,0-12-5.4-12-12V28c0-6.6,5.4-12,12-12h448c6.6,0,12,5.4,12,12v448C488,482.6,482.6,488,476,488z"/>
<path class="st0" d="M442.29,165.31h-96.41c-6.6,0-12-5.4-12-12V56.9c0-6.6,5.4-12,12-12h96.41c6.6,0,12,5.4,12,12v96.41
	C454.29,159.91,448.89,165.31,442.29,165.31z"/>
<path class="st0" d="M297.8,165.31h-96.41c-6.6,0-12-5.4-12-12V56.9c0-6.6,5.4-12,12-12h96.41c6.6,0,12,5.4,12,12v96.41
	C309.8,159.91,304.4,165.31,297.8,165.31z"/>
<path class="st0" d="M297.8,454.29h-96.41c-6.6,0-12-5.4-12-12v-96.41c0-6.6,5.4-12,12-12h96.41c6.6,0,12,5.4,12,12v96.41
	C309.8,448.89,304.4,454.29,297.8,454.29z"/>
<path class="st0" d="M153.31,454.29H56.9c-6.6,0-12-5.4-12-12v-96.41c0-6.6,5.4-12,12-12h96.41c6.6,0,12,5.4,12,12v96.41
	C165.31,448.89,159.91,454.29,153.31,454.29z"/>
<path class="st0" d="M442.29,309.8h-96.41c-6.6,0-12-5.4-12-12v-96.41c0-6.6,5.4-12,12-12h96.41c6.6,0,12,5.4,12,12v96.41
	C454.29,304.4,448.89,309.8,442.29,309.8z"/>
<g>
	<path class="st0" d="M333.88,439.84c0,7.95,6.5,14.45,14.45,14.45h84.07l-98.52-98.52V439.84z"/>
	<path class="st0" d="M454.29,348.33c0-7.95-6.5-14.45-14.45-14.45h-85.28l99.72,99.72V348.33z"/>
</g>
<g>
	<path class="st0" d="M165.31,203.84c0-7.95-6.5-14.45-14.45-14.45h-29.89l44.34,44.34V203.84z"/>
	<path class="st0" d="M59.35,189.39c-7.95,0-14.45,6.5-14.45,14.45v91.51c0,7.95,6.5,14.45,14.45,14.45h91.51
		c7.95,0,14.45-6.5,14.45-14.45v-28.9l-75.86-77.06H59.35z"/>
</g>
<g>
	<path class="st0" d="M59.35,44.9c-7.95,0-14.45,6.5-14.45,14.45v91.51c0,7.95,6.5,14.45,14.45,14.45h30.64V44.9H59.35z"/>
	<path class="st0" d="M150.86,44.9h-30.77v120.41h30.77c7.95,0,14.45-6.5,14.45-14.45V59.35C165.31,51.4,158.8,44.9,150.86,44.9z"/>
</g>
<g>
	<path class="st0" d="M189.39,263.99v31.35c0,7.95,6.5,14.45,14.45,14.45h86.52l-45.67-45.78L189.39,263.99z"/>
	<path class="st0" d="M309.8,286.76v-82.92c0-7.95-6.5-14.45-14.45-14.45h-91.51c-7.95,0-14.45,6.5-14.45,14.45v30.06l67.43,0.04
		L309.8,286.76z"/>
</g>
</svg>
